<?xml version="1.0" encoding="utf-8"?>
<!-- Uploaded to: SVG Repo, www.svgrepo.com, Generator: SVG Repo Mixer Tools -->
<svg width="800px" height="800px" viewBox="0 0 1024 1024" class="icon"  version="1.1" xmlns="http://www.w3.org/2000/svg"><path d="M264.1 239.7c-13.8 0-20.7-9.8-25.7-17-5.1-7.3-7.7-10.2-12.7-10.2s-7.5 3-12.7 10.2c-5.1 7.2-12 17-25.7 17s-20.7-9.8-25.7-17c-5.1-7.3-7.7-10.2-12.7-10.2-5 0-7.5 3-12.7 10.2-5.1 7.2-12 17-25.7 17-13.8 0-20.7-9.8-25.7-17-5.1-7.3-7.7-10.2-12.7-10.2-4.4 0-8-3.6-8-8s3.6-8 8-8c13.8 0 20.7 9.8 25.7 17 5.1 7.3 7.7 10.2 12.7 10.2 5 0 7.5-3 12.7-10.2 5.1-7.2 12-17 25.7-17 13.8 0 20.7 9.8 25.7 17 5.1 7.3 7.7 10.2 12.7 10.2 5 0 7.5-3 12.7-10.2 5.1-7.2 12-17 25.7-17 13.8 0 20.7 9.8 25.7 17 5.1 7.3 7.7 10.2 12.7 10.2 4.4 0 8 3.6 8 8s-3.6 8-8 8zM264.1 289.7c-13.8 0-20.7-9.8-25.7-17-5.1-7.3-7.7-10.2-12.7-10.2s-7.5 3-12.7 10.2c-5.1 7.2-12 17-25.7 17s-20.7-9.8-25.7-17c-5.1-7.3-7.7-10.2-12.7-10.2-5 0-7.5 3-12.7 10.2-5.1 7.2-12 17-25.7 17-13.8 0-20.7-9.8-25.7-17-5.1-7.3-7.7-10.2-12.7-10.2-4.4 0-8-3.6-8-8s3.6-8 8-8c13.8 0 20.7 9.8 25.7 17 5.1 7.3 7.7 10.2 12.7 10.2 5 0 7.5-3 12.7-10.2 5.1-7.2 12-17 25.7-17 13.8 0 20.7 9.8 25.7 17 5.1 7.3 7.7 10.2 12.7 10.2 5 0 7.5-3 12.7-10.2 5.1-7.2 12-17 25.7-17 13.8 0 20.7 9.8 25.7 17 5.1 7.3 7.7 10.2 12.7 10.2 4.4 0 8 3.6 8 8s-3.6 8-8 8z" fill="#9A2D2F" /><path d="M349.1 104.1m-32 0a32 32 0 1 0 64 0 32 32 0 1 0-64 0Z" fill="#FFEB4D" /><path d="M349.1 144.1c-22.1 0-40-17.9-40-40s17.9-40 40-40 40 17.9 40 40-18 40-40 40z m0-64c-13.2 0-24 10.8-24 24s10.8 24 24 24 24-10.8 24-24-10.8-24-24-24z" fill="#9A2D2F" /><path d="M798.7 501.1h-598c-17.7 0-32-14.3-32-32s14.3-32 32-32h598v64z" fill="#FFE0B6" /><path d="M718.7 471.1h-470v-148c0-8.8 7.2-16 16-16h438c8.8 0 16 7.2 16 16v148z" fill="#FFEB4D" /><path d="M248.7 405.1h470v32h-470z" fill="#FFFFFF" /><path d="M848.7 501.1h-648c-17.7 0-32-14.3-32-32v388c0 35.3 28.7 64 64 64h552c35.3 0 64-28.7 64-64v-356z" fill="#FFACC2" /><path d="M421.4 634.5l-15.1 14.7c-6.9-7.1-13.7-10.6-20.4-10.6-4 0-7.2 1.1-9.6 3.2-2.5 2.1-3.7 4.5-3.7 7.3 0 2.3 1.1 4.7 3.3 7 2.1 2.3 6.5 4.8 13 7.5 11.6 4.8 19.5 8.9 23.8 12.3 4.3 3.4 7.6 7.4 9.8 12.2 2.3 4.7 3.4 10.1 3.4 15.9 0 5.9-1.2 11.3-3.7 16.3-2.4 5-5.6 9-9.5 11.9-3.9 2.9-9.4 5.1-16.6 6.6v20.9h-14.7v-20.4c-6.8-0.8-12.6-2.5-17.4-5.2-6.6-3.6-12.7-8.5-18.3-14.5l14.8-15.2c9.5 10.2 18.8 15.2 27.7 15.2 4.5 0 8.4-1.6 11.7-4.7 3.3-3.2 4.9-6.9 4.9-11.1 0-3.6-1-6.7-3.1-9.5-2.1-2.7-6.2-5.5-12.3-8.3-12.4-5.7-20.8-10.3-25.2-13.6s-7.6-7.1-9.8-11.3c-2.2-4.2-3.2-8.7-3.2-13.4 0-7.9 2.9-14.6 8.6-20.2 5.7-5.6 13-8.6 21.7-9v-7.8H396v8.8c5.1 1.2 9.3 2.8 12.9 4.8s7.7 5.4 12.5 10.2z" fill="#9A2D2F" /><path d="M848.7 756.1h-154c-35.3 0-64-28.7-64-64s28.7-64 64-64h154v128z" fill="#DAE5FF" /><path d="M693.7 724.1c-17.6 0-32-14.4-32-32s14.4-32 32-32 32 14.4 32 32-14.4 32-32 32z" fill="#FFFFFF" /><path d="M693.7 732.1c-22.1 0-40-17.9-40-40s17.9-40 40-40 40 17.9 40 40-18 40-40 40z m0-64c-13.2 0-24 10.8-24 24s10.8 24 24 24 24-10.8 24-24-10.8-24-24-24z" fill="#9A2D2F" /><path d="M951.4 734.9c-5 0-7.5-3-12.7-10.2-5.1-7.2-12-17-25.7-17s-20.7 9.8-25.7 17c-5.1 7.3-7.7 10.2-12.7 10.2-5 0-7.5-3-12.7-10.2-1.5-2.2-3.2-4.6-5.2-6.9v-24.3c4.3 4.1 10 7.4 17.9 7.4 13.8 0 20.7-9.8 25.7-17 5.1-7.3 7.7-10.2 12.7-10.2s7.5 3 12.7 10.2c5.1 7.2 12 17 25.7 17 4.4 0 8-3.6 8-8s-3.6-8-8-8c-5 0-7.5-3-12.7-10.2-5.1-7.2-12-17-25.7-17s-20.7 9.8-25.7 17c-5.1 7.3-7.7 10.2-12.7 10.2-5 0-7.5-3-12.7-10.2-1.5-2.2-3.2-4.6-5.2-6.9V501.1c0-4.4-3.6-8-8-8h-42v-56c0-4.4-3.6-8-8-8h-72v-106c0-13.2-10.8-24-24-24h-438c-13.2 0-24 10.8-24 24v106h-40c-22.1 0-40 17.9-40 40v388c0 22.6 10.5 42.8 26.8 56H99.7c-4.4 0-8 3.6-8 8s3.6 8 8 8h824c4.4 0 8-3.6 8-8s-3.6-8-8-8h-93.8c16.3-13.2 26.8-33.4 26.8-56V743.5c4.3 4.1 10 7.4 17.9 7.4 13.8 0 20.7-9.8 25.7-17 5.1-7.3 7.7-10.2 12.7-10.2s7.5 3 12.7 10.2c5.1 7.2 12 17 25.7 17 4.4 0 8-3.6 8-8s-3.6-8-8-8z m-110.7 13.2h-146c-30.9 0-56-25.1-56-56s25.1-56 56-56h146v112z m-584-425c0-4.4 3.6-8 8-8h438c4.4 0 8 3.6 8 8v74h-454v-74z m0 90h454v16h-454v-16z m0 32h454v18h-454v-18z m-56 0h40v26c0 4.4 3.6 8 8 8h470c4.4 0 8-3.6 8-8v-26h64v48h-590c-13.2 0-24-10.8-24-24s10.7-24 24-24z m584.1 468H232.5c-30.8-0.1-55.9-25.2-55.9-56V501h0.1c0.1 0 0.1 0.1 0.2 0.1 0.4 0.3 0.8 0.6 1.3 0.9 0.2 0.1 0.3 0.2 0.5 0.3 0.3 0.2 0.7 0.5 1 0.7 0.2 0.1 0.4 0.2 0.5 0.3 0.4 0.2 0.7 0.4 1.1 0.6 0.2 0.1 0.3 0.2 0.5 0.3 0.5 0.3 1 0.5 1.4 0.7 0.1 0 0.1 0.1 0.2 0.1 0.5 0.3 1.1 0.5 1.6 0.7 0.2 0.1 0.3 0.1 0.5 0.2 0.4 0.2 0.8 0.3 1.2 0.5 0.2 0.1 0.4 0.1 0.6 0.2 0.4 0.1 0.8 0.3 1.1 0.4 0.2 0.1 0.4 0.1 0.6 0.2 0.4 0.1 0.9 0.3 1.3 0.4 0.2 0 0.3 0.1 0.5 0.1 0.6 0.1 1.2 0.3 1.8 0.4 0.1 0 0.3 0 0.4 0.1 0.5 0.1 0.9 0.2 1.4 0.3 0.2 0 0.4 0.1 0.6 0.1 0.4 0.1 0.8 0.1 1.2 0.2 0.2 0 0.4 0 0.7 0.1 0.4 0 0.9 0.1 1.3 0.1h642.5v111h-146c-39.7 0-72 32.3-72 72s32.3 72 72 72h146v93c0 30.9-25.1 56-55.9 56.1z" fill="#9A2D2F" /><path d="M726.7 467.2c32 0.5 58.5-14.1 64-16.5V445h-64v22.2zM240.7 454.1v-9h-40c-11.9 0-21.8 8.7-23.7 20.1 17.7 5.9 31.8-5.6 63.7-11.1z" fill="#FFFFFF" /></svg>